<svg xmlns="http://www.w3.org/2000/svg" xmlns:xlink="http://www.w3.org/1999/xlink" xmlns:sketch="http://www.bohemiancoding.com/sketch/ns" width="90px" height="75px" viewBox="4.5 -7.5 90.0 101.25" version="1.1">
    <!-- Generator: Sketch 3.2.2 (9983) - http://www.bohemiancoding.com/sketch -->
    <title>briefcase</title>
    <desc>Created with Sketch.</desc>
    <defs/>
    <g id="icon-set" stroke="none" stroke-width="1" fill="none" fill-rule="evenodd" sketch:type="MSPage">
        <path d="M64.75,14.0821918 L71.5,14.0821918 L71.5,14.5821918 L71.5,74.0821918 L18.5,74.0821918 L18.5,14.5821918 L18.5,14.0821918 L25.25,14.0821918 L25.25,7.99025648 C25.25,3.57214429 28.8299093,0 33.255482,0 L56.744518,0 C61.1605004,0 64.75,3.58205515 64.75,7.99025648 L64.75,14.0821918 L64.75,14.0821918 Z M75.5,14.0821918 L81.9933297,14.0821918 C86.4152916,14.0821918 90,17.6557811 90,22.0807414 L90,66.0836422 C90,70.5011191 86.4163547,74.0821918 81.9933297,74.0821918 L75.5,74.0821918 L75.5,14.5821918 L75.5,14.0821918 L75.5,14.0821918 Z M14.5,14.0821918 L8.0066703,14.0821918 C3.58364532,14.0821918 0,17.6632644 0,22.0807414 L0,66.0836422 C0,70.5086025 3.5847084,74.0821918 8.0066703,74.0821918 L14.5,74.0821918 L14.5,14.5821918 L14.5,14.0821918 L14.5,14.0821918 Z M56.744518,7.99392414 C56.7459361,7.99392414 56.75,14.0821918 56.75,14.0821918 C56.75,14.0806638 33.255482,14.0785241 33.255482,14.0785241 C33.2540639,14.0785241 33.25,7.99025648 33.25,7.99025648 C33.25,7.99178443 56.744518,7.99392414 56.744518,7.99392414 L56.744518,7.99392414 Z" id="briefcase" fill="#000000" sketch:type="MSShapeGroup"/>
    </g>
<text x="0.0" y="88.125" font-size="3.75" font-weight="bold" font-family="Helvetica Neue, Helvetica, Arial-Unicode, Arial, Sans-serif" fill="#000000">Created by Julynn B.</text><text x="0.0" y="91.875" font-size="3.75" font-weight="bold" font-family="Helvetica Neue, Helvetica, Arial-Unicode, Arial, Sans-serif" fill="#000000">from the Noun Project</text></svg>